<svg width="18" height="21" viewBox="0 0 18 21" fill="none" xmlns="http://www.w3.org/2000/svg">
<path d="M11.7625 15.7083H16.45L15.1328 14.2449C14.7756 13.848 14.575 13.3097 14.575 12.7484V9.45834C14.575 6.73705 13.0097 4.42197 10.825 3.56397V3.20833C10.825 2.05774 9.98549 1.125 8.94995 1.125C7.91442 1.125 7.07495 2.05774 7.07495 3.20833V3.56397C4.89022 4.42197 3.32495 6.73705 3.32495 9.45834V12.7484C3.32495 13.3097 3.12428 13.848 2.76708 14.2449L1.44995 15.7083H6.13745M11.7625 15.7083V16.75C11.7625 18.4759 10.5033 19.875 8.94995 19.875C7.39665 19.875 6.13745 18.4759 6.13745 16.75V15.7083M11.7625 15.7083H6.13745" stroke="#3F3F46" stroke-width="1.2" stroke-linecap="round" stroke-linejoin="round"/>
</svg>
