<svg width="14" height="16" viewBox="0 0 14 16" fill="none" xmlns="http://www.w3.org/2000/svg">
<path d="M9.25 11.7155H13L11.9463 10.6874C11.6605 10.4086 11.5 10.0305 11.5 9.63616V7.32493C11.5 5.41325 10.2478 3.78692 8.5 3.18419V2.93435C8.5 2.12607 7.82843 1.47083 7 1.47083C6.17157 1.47083 5.5 2.12607 5.5 2.93435V3.18419C3.75221 3.78692 2.5 5.41325 2.5 7.32493V9.63616C2.5 10.0305 2.33946 10.4086 2.0537 10.6874L1 11.7155H4.75M9.25 11.7155V12.4473C9.25 13.6597 8.24264 14.6426 7 14.6426C5.75736 14.6426 4.75 13.6597 4.75 12.4473V11.7155M9.25 11.7155H4.75" stroke="#3F3F46" stroke-width="1.2" stroke-linecap="round" stroke-linejoin="round"/>
</svg>
