<svg width="16" height="15" viewBox="0 0 16 15" fill="none" xmlns="http://www.w3.org/2000/svg">
<path d="M1.25 7.75689L2.75 6.29336M2.75 6.29336L8 1.17102L13.25 6.29336M2.75 6.29336V13.611C2.75 14.0151 3.08579 14.3428 3.5 14.3428H5.75M13.25 6.29336L14.75 7.75689M13.25 6.29336V13.611C13.25 14.0151 12.9142 14.3428 12.5 14.3428H10.25M5.75 14.3428C6.16421 14.3428 6.5 14.0151 6.5 13.611V10.6839C6.5 10.2798 6.83579 9.95218 7.25 9.95218H8.75C9.16421 9.95218 9.5 10.2798 9.5 10.6839V13.611C9.5 14.0151 9.83579 14.3428 10.25 14.3428M5.75 14.3428H10.25" stroke="#18181B" stroke-width="1.2" stroke-linecap="round" stroke-linejoin="round"/>
</svg>
