<svg width="18" height="18" viewBox="0 0 18 18" fill="none" xmlns="http://www.w3.org/2000/svg">
<path d="M14.25 3.74951H12.675C12.5009 2.90307 12.0404 2.14252 11.3709 1.59605C10.7015 1.04958 9.86415 0.750603 8.99999 0.749512H3.74999C2.7558 0.750703 1.80266 1.14617 1.09966 1.84918C0.396654 2.55218 0.00118326 3.50532 -7.62939e-06 4.49951L-7.62939e-06 11.2495C0.00187772 11.9212 0.229146 12.5729 0.645394 13.1001C1.06164 13.6273 1.64279 13.9996 2.29574 14.1573C2.22507 14.5326 2.23714 14.9188 2.33114 15.289C2.42513 15.6592 2.59877 16.0044 2.83994 16.3006C3.08111 16.5967 3.38401 16.8367 3.72748 17.0037C4.07096 17.1707 4.44675 17.2608 4.82862 17.2676C5.21049 17.2744 5.58925 17.1978 5.93846 17.0431C6.28767 16.8885 6.59893 16.6595 6.8505 16.3721C7.10207 16.0847 7.28791 15.7459 7.39504 15.3793C7.50216 15.0127 7.528 14.6271 7.47074 14.2495H10.5322C10.5129 14.3736 10.5027 14.4989 10.5015 14.6245C10.5015 15.3207 10.7781 15.9884 11.2703 16.4807C11.7626 16.973 12.4303 17.2495 13.1265 17.2495C13.8227 17.2495 14.4904 16.973 14.9826 16.4807C15.4749 15.9884 15.7515 15.3207 15.7515 14.6245C15.7506 14.4677 15.7353 14.3113 15.7057 14.1573C16.3584 13.9993 16.9392 13.6269 17.3552 13.0997C17.7711 12.5725 17.9982 11.921 18 11.2495V7.49951C17.9988 6.50532 17.6033 5.55218 16.9003 4.84918C16.1973 4.14617 15.2442 3.7507 14.25 3.74951V3.74951ZM16.5 7.49951V8.24951H12.75V5.24951H14.25C14.8467 5.24951 15.419 5.48657 15.841 5.90852C16.2629 6.33048 16.5 6.90278 16.5 7.49951ZM1.49999 11.2495V4.49951C1.49999 3.90278 1.73705 3.33048 2.159 2.90852C2.58096 2.48656 3.15326 2.24951 3.74999 2.24951H8.99999C9.59673 2.24951 10.169 2.48656 10.591 2.90852C11.0129 3.33048 11.25 3.90278 11.25 4.49951V12.7495H2.99999C2.60217 12.7495 2.22064 12.5915 1.93933 12.3102C1.65803 12.0289 1.49999 11.6473 1.49999 11.2495ZM5.99999 14.6245C5.99999 14.9229 5.88147 15.209 5.67049 15.42C5.45951 15.631 5.17336 15.7495 4.87499 15.7495C4.57662 15.7495 4.29048 15.631 4.0795 15.42C3.86852 15.209 3.74999 14.9229 3.74999 14.6245C3.75045 14.4963 3.77408 14.3693 3.81974 14.2495H5.93024C5.9759 14.3693 5.99953 14.4963 5.99999 14.6245V14.6245ZM13.125 15.7495C12.8266 15.7495 12.5405 15.631 12.3295 15.42C12.1185 15.209 12 14.9229 12 14.6245C12.0003 14.4963 12.024 14.3693 12.0697 14.2495H14.1802C14.226 14.3693 14.2497 14.4963 14.25 14.6245C14.25 14.9229 14.1315 15.209 13.9205 15.42C13.7095 15.631 13.4234 15.7495 13.125 15.7495ZM15 12.7495H12.75V9.74951H16.5V11.2495C16.5 11.6473 16.342 12.0289 16.0607 12.3102C15.7793 12.5915 15.3978 12.7495 15 12.7495Z" fill="#3F3F46"/>
</svg>
