<svg width="16" height="15" viewBox="0 0 16 15" fill="none" xmlns="http://www.w3.org/2000/svg">
<path d="M6.74347 2.13471C7.06327 0.849438 8.93673 0.849438 9.25653 2.13472C9.46312 2.96499 10.4381 3.359 11.1859 2.91444C12.3435 2.22624 13.6682 3.51877 12.9629 4.64823C12.5072 5.37785 12.9111 6.32908 13.762 6.53065C15.0793 6.84267 15.0793 8.67058 13.762 8.9826C12.9111 9.18416 12.5072 10.1354 12.9629 10.865C13.6682 11.9945 12.3435 13.287 11.1859 12.5988C10.4381 12.1542 9.46312 12.5483 9.25653 13.3785C8.93673 14.6638 7.06327 14.6638 6.74347 13.3785C6.53688 12.5483 5.56194 12.1542 4.81414 12.5988C3.65653 13.287 2.33179 11.9945 3.03714 10.865C3.49278 10.1354 3.08895 9.18416 2.23798 8.9826C0.920673 8.67058 0.920672 6.84267 2.23798 6.53065C3.08895 6.32908 3.49278 5.37785 3.03714 4.64823C2.33179 3.51877 3.65653 2.22624 4.81414 2.91444C5.56194 3.359 6.53688 2.96499 6.74347 2.13471Z" stroke="#3F3F46" stroke-width="1.2" stroke-linecap="round" stroke-linejoin="round"/>
<path d="M10.25 7.75662C10.25 8.96905 9.24264 9.95191 8 9.95191C6.75736 9.95191 5.75 8.96905 5.75 7.75662C5.75 6.5442 6.75736 5.56133 8 5.56133C9.24264 5.56133 10.25 6.5442 10.25 7.75662Z" stroke="#3F3F46" stroke-width="1.2" stroke-linecap="round" stroke-linejoin="round"/>
</svg>
