<svg width="16" height="15" viewBox="0 0 16 15" fill="none" xmlns="http://www.w3.org/2000/svg">
<path d="M5.75 12.4078V8.01721C5.75 7.20893 5.07843 6.55369 4.25 6.55369H2.75C1.92157 6.55369 1.25 7.20893 1.25 8.01721V12.4078C1.25 13.2161 1.92157 13.8713 2.75 13.8713H4.25C5.07843 13.8713 5.75 13.2161 5.75 12.4078ZM5.75 12.4078V5.09016C5.75 4.28188 6.42157 3.62664 7.25 3.62664H8.75C9.57843 3.62664 10.25 4.28188 10.25 5.09016V12.4078M5.75 12.4078C5.75 13.2161 6.42157 13.8713 7.25 13.8713H8.75C9.57843 13.8713 10.25 13.2161 10.25 12.4078M10.25 12.4078V2.16311C10.25 1.35483 10.9216 0.699585 11.75 0.699585H13.25C14.0784 0.699585 14.75 1.35483 14.75 2.16311V12.4078C14.75 13.2161 14.0784 13.8713 13.25 13.8713H11.75C10.9216 13.8713 10.25 13.2161 10.25 12.4078Z" stroke="#3F3F46" stroke-width="1.2" stroke-linecap="round" stroke-linejoin="round"/>
</svg>
